PathFileType	4	(X/Y/Z)	E:\Qualisys_Data\Carbon_Farble_Plate\Data\Amateur_Runner\S14\T1\S14T1V11_c3d.trc
DataRate	CameraRate	NumFrames	NumMarkers	Units	OrigDataRate	OrigDataStartFrame	OrigNumFrames
200.000000	200.000000	4	39	mm	200.000000	261	349
Frame#	Time	LSHO			RSHO			LICST			RICST			LASIS			LHEEL			RASIS			LTROC			RTROC			SACR			LTH1			LSK4			LTH2			LTH3			RHM5			LSK2			LTH4			RTH1			LTOE			RTH2			RTH3			RTH4			LLEP			RLEP			LSK1			LSK3			RSK1			LHM5			RSK2			LFT1			RSK3			RSK4			LLME			RLME			RTOE			RHEEL			RFT1			RFT2			LFT2			
		X1	Y1	Z1	X2	Y2	Z2	X3	Y3	Z3	X4	Y4	Z4	X5	Y5	Z5	X6	Y6	Z6	X7	Y7	Z7	X8	Y8	Z8	X9	Y9	Z9	X10	Y10	Z10	X11	Y11	Z11	X12	Y12	Z12	X13	Y13	Z13	X14	Y14	Z14	X15	Y15	Z15	X16	Y16	Z16	X17	Y17	Z17	X18	Y18	Z18	X19	Y19	Z19	X20	Y20	Z20	X21	Y21	Z21	X22	Y22	Z22	X23	Y23	Z23	X24	Y24	Z24	X25	Y25	Z25	X26	Y26	Z26	X27	Y27	Z27	X28	Y28	Z28	X29	Y29	Z29	X30	Y30	Z30	X31	Y31	Z31	X32	Y32	Z32	X33	Y33	Z33	X34	Y34	Z34	X35	Y35	Z35	X36	Y36	Z36	X37	Y37	Z37	X38	Y38	Z38	X39	Y39	Z39	

262	1.305	1401.12744140625	1387.327392578125	-563.7378540039062	1488.593872070312	1395.22802734375	-273.6003723144531	1383.800170898438	948.225830078125	-522.5657958984375	1441.376586914062	948.7730102539062	-250.5806732177734	1431.621704101562	903.6548461914062	-498.7897644042969	1407.2744140625	72.0627212524414	-382.0927429199219	1462.923583984375	905.1110229492188	-270.7755126953125	1295.21484375	818.8779296875	-522.0575561523438	1317.026000976562	855.9484252929688	-200.8888397216797	1273.483642578125	951.3489990234376	-371.4728698730469	1463.769409179688	626.7671508789062	-534.4480590820312	1441.121337890625	268.46630859375	-471.4122314453125	1397.157470703125	598.5428466796875	-506.8156433105469	1514.466796875	543.9201049804688	-508.5468139648438	908.7109985351562	177.8524780273438	-231.1024627685547	1451.927490234375	365.1670532226562	-494.3899230957031	1443.210571289062	513.9935302734375	-488.52978515625	1412.49951171875	602.1544799804688	-220.9163513183594	1658.781372070312	62.04485321044922	-438.8789367675781	1338.35693359375	615.964599609375	-200.7196350097656	1395.650512695312	504.3906555175781	-239.1852111816406	1315.521362304688	517.6609497070312	-217.3060760498047	1514.793334960938	469.8100280761719	-498.9144897460938	1314.194946289062	449.2515869140625	-222.8723297119141	1533.806274414062	355.4961853027344	-494.16162109375	1519.97216796875	255.7529907226562	-475.3907470703125	1223.714965820312	370.2359313964844	-222.7884521484375	1585.345458984375	48.47070693969727	-490.7398376464844	1187.349365234375	447.9612731933594	-218.4312896728516	1420.943725585938	44.92517852783203	-357.5020446777344	1126.804565429688	334.2547302246094	-237.6041412353516	1100.071655273438	409.5765380859375	-233.4867095947266	1457.936645507812	91.28394317626952	-445.9381408691406	950.7713012695312	319.282958984375	-256.6697082519531	936.4042358398438	107.4656677246094	-288.9086303710938	921.8054809570312	364.8919067382812	-314.4571228027344	897.4251098632812	345.9999389648438	-347.2857055664062	895.4654541015625	361.0328063964844	-290.0029907226562	1403.342163085938	45.21825408935547	-409.3101501464844
263	1.31	1416.93603515625	1381.984252929688	-564.905517578125	1502.564453125	1391.0712890625	-273.4230346679688	1395.283569335938	945.2660522460938	-521.7822265625	1454.947509765625	943.4402465820312	-250.4083709716797	1444.611206054688	900.5485229492188	-499.6100769042969	1409.633544921875	73.93867492675781	-382.7669677734375	1476.663818359375	900.25830078125	-271.3948669433594	1308.342651367188	815.5103149414062	-521.1130981445312	1332.093994140625	849.1455688476562	-201.3933410644531	1285.843994140625	946.5479736328124	-370.1573486328125	1481.008666992188	626.9940185546875	-534.8056640625	1453.034057617188	269.62158203125	-473.7404479980469	1414.090698242188	597.0072021484375	-509.49755859375	1532.492797851562	544.2137451171875	-509.3570251464844	930.5374755859376	179.0646057128906	-231.3379211425781	1466.954467773438	365.2207946777344	-496.9465942382812	1461.323120117188	512.8931884765625	-490.875732421875	1432.458129882812	598.3641357421875	-220.9437866210938	1661.420532226562	57.93572998046875	-438.3468627929688	1358.089233398438	610.3862915039062	-201.1511077880859	1417.733032226562	499.9786682128906	-240.2311248779297	1337.216552734375	511.1058349609375	-217.2856292724609	1533.653564453125	469.1613159179688	-499.299072265625	1337.592163085938	442.6173400878906	-224.2723083496094	1548.711791992188	354.2682189941406	-494.1140441894531	1531.7744140625	254.9296417236328	-475.2496032714844	1247.157104492188	366.1948547363281	-222.6496887207031	1586.781982421875	47.88846206665039	-490.1312866210938	1211.696411132812	444.5820922851562	-217.7596435546875	1422.231567382812	47.16892242431641	-358.4556274414062	1149.538330078125	331.7072448730469	-238.1618804931641	1124.183349609375	407.3164978027344	-233.1003112792969	1462.03955078125	93.36415100097656	-446.939208984375	973.2619018554688	319.994384765625	-257.1372680664062	958.1788330078124	108.2030334472656	-288.8922119140625	944.5216064453124	365.720947265625	-314.987060546875	920.5860595703124	346.9142456054688	-347.5003356933594	918.1575317382812	362.2738952636719	-290.7109985351562	1404.614624023438	46.85142517089844	-410.3644409179688
264	1.315	1433.178344726562	1376.87646484375	-566.6758422851562	1516.366455078125	1387.116943359375	-273.2018737792969	1407.564819335938	942.6152954101562	-522.030029296875	1468.51708984375	938.3235473632812	-250.6751098632812	1457.911010742188	898.100341796875	-501.0901489257812	1411.5126953125	75.82191467285156	-383.6091613769531	1490.093627929688	895.241943359375	-271.7142333984375	1320.931030273438	813.1463012695312	-520.068603515625	1346.711303710938	843.1804809570312	-201.7709808349609	1299.116333007812	942.0014038085938	-368.9387817382812	1496.544921875	626.4805908203125	-536.2604370117188	1463.967895507812	270.6735534667969	-476.0589599609375	1429.840087890625	595.0076293945312	-511.3558349609375	1549.209228515625	544.2667846679688	-509.876953125	953.8176879882812	179.0373077392578	-232.3389587402344	1481.38330078125	365.4817810058594	-500.3162841796875	1478.197875976562	511.9219055175781	-493.3887329101562	1452.4326171875	594.8335571289062	-221.7785339355469	1663.160278320312	55.80509567260742	-439.5054931640625	1377.58740234375	605.2252807617188	-201.3090057373047	1439.853881835938	496.0926818847656	-240.3894958496094	1359.556396484375	505.9158630371094	-216.7107543945312	1551.322387695312	468.5182495117188	-499.8047180175781	1361.247436523438	437.71630859375	-224.7731018066406	1562.661865234375	352.4627990722656	-493.9571228027344	1542.283935546875	253.6735382080078	-475.0743103027344	1270.886352539062	362.4958190917969	-223.4011688232422	1588.653686523438	47.01727294921875	-491.07275390625	1236.454467773438	440.8870544433594	-216.8733978271484	1423.942138671875	48.54916763305664	-358.7552185058594	1173.17724609375	329.311767578125	-238.5965270996094	1148.600952148438	405.1637268066406	-232.8091278076172	1465.242431640625	95.3394775390625	-449.6997680664062	996.5611572265624	320.6919860839844	-257.1716003417969	981.3036499023438	109.0317459106445	-288.8707885742188	967.7536010742188	366.8039855957031	-315.2455139160156	943.5836791992188	347.6058044433594	-347.7914733886719	941.2611694335938	362.7087097167969	-290.7571105957031	1405.859375	48.55889511108398	-410.9537353515625
265	1.32	1448.86328125	1371.938598632812	-568.350341796875	1530.76611328125	1383.532348632812	-272.8481750488281	1420.310913085938	940.149658203125	-522.073486328125	1481.927978515625	933.9505004882812	-250.7090759277344	1471.23095703125	895.1251220703125	-501.8099670410156	1412.98583984375	77.25057220458984	-384.0356750488281	1503.238037109375	890.8289794921875	-272.7068786621094	1333.7080078125	810.6104736328125	-519.8349609375	1361.4208984375	837.2232666015625	-202.4691314697266	1312.562622070312	938.32373046875	-367.8191528320312	1511.472534179688	625.1168823242188	-537.3433837890625	1474.263427734375	271.4915161132812	-478.504150390625	1444.837524414062	592.9732055664062	-513.0009155273438	1564.247924804688	542.9344482421875	-511.379638671875	977.8386840820312	180.217041015625	-231.2294311523438	1495.110107421875	365.6278381347656	-502.8559875488281	1493.86376953125	510.1647338867188	-495.1932373046875	1472.510620117188	592.3074340820312	-222.1687774658203	1664.399780273438	53.63190078735352	-440.3500366210938	1397.551025390625	600.8324584960938	-201.4634857177734	1462.335571289062	493.2744445800781	-241.2676391601562	1381.99169921875	500.4375610351562	-216.9692077636719	1566.9619140625	466.5804443359375	-500.0171203613281	1385.295654296875	433.2724609375	-224.9271850585938	1575.693481445312	350.6432495117188	-494.3053588867188	1552.032958984375	252.4140167236328	-474.91015625	1295.023071289062	358.82568359375	-224.0083312988281	1589.579345703125	45.34416961669922	-491.7905883789062	1261.689086914062	437.6243591308594	-216.1290283203125	1424.737182617188	49.72174072265625	-359.382568359375	1196.928466796875	326.8234558105469	-239.0875549316406	1173.221435546875	403.0595397949219	-232.6525421142578	1467.25830078125	95.78157043457033	-449.0647583007812	1020.466735839844	320.7052307128906	-257.4578857421875	1004.892272949219	109.4766387939453	-288.854248046875	991.09033203125	366.7369995117188	-315.5575561523438	966.5109252929688	347.8948364257812	-348.0567932128906	965.0205688476562	363.2070007324219	-290.8194885253906	1406.892456054688	49.68390655517578	-411.2833251953125
